<?xml version="1.0" encoding="UTF-8" standalone="no"?>
<!DOCTYPE svg PUBLIC "-//W3C//DTD SVG 1.1//EN"
 "http://www.w3.org/Graphics/SVG/1.1/DTD/svg11.dtd">
<!-- Generated by graphviz version 2.40.1 (20161225.0304)
 -->
<!-- Title: %0 Pages: 1 -->
<svg width="908pt" height="876pt"
 viewBox="0.00 0.00 907.91 876.00" xmlns="http://www.w3.org/2000/svg" xmlns:xlink="http://www.w3.org/1999/xlink">
<g id="graph0" class="graph" transform="scale(1 1) rotate(0) translate(144 732)">
<title>%0</title>
<polygon fill="#ffffff" stroke="transparent" points="-144,144 -144,-732 763.9118,-732 763.9118,144 -144,144"/>
<!-- answers -->
<g id="node1" class="node">
<title>answers</title>
<polygon fill="#4477c9" stroke="transparent" points="252.1256,0 252.1256,-218 338.1256,-218 338.1256,0 252.1256,0"/>
<polygon fill="#add8e6" stroke="transparent" points="252.1256,-200 252.1256,-218 338.1256,-218 338.1256,-200 252.1256,-200"/>
<polygon fill="none" stroke="#000000" points="252.1256,-200 252.1256,-218 338.1256,-218 338.1256,-200 252.1256,-200"/>
<text text-anchor="start" x="278.3838" y="-206.9" font-family="Times,serif" font-weight="bold" font-style="italic" font-size="9.00" fill="#000000"> answers </text>
<polygon fill="none" stroke="#000000" points="252.1256,-180 252.1256,-200 338.1256,-200 338.1256,-180 252.1256,-180"/>
<text text-anchor="start" x="257.1256" y="-186.9" font-family="Times,serif" font-size="9.00" fill="#000000">author: ObjectID</text>
<polygon fill="none" stroke="#000000" points="252.1256,-160 252.1256,-180 338.1256,-180 338.1256,-160 252.1256,-160"/>
<text text-anchor="start" x="257.1256" y="-166.9" font-family="Times,serif" font-size="9.00" fill="#000000">body: String</text>
<polygon fill="none" stroke="#000000" points="252.1256,-140 252.1256,-160 338.1256,-160 338.1256,-140 252.1256,-140"/>
<text text-anchor="start" x="257.1256" y="-146.9" font-family="Times,serif" font-size="9.00" fill="#000000">comments: Array</text>
<polygon fill="none" stroke="#000000" points="252.1256,-120 252.1256,-140 338.1256,-140 338.1256,-120 252.1256,-120"/>
<text text-anchor="start" x="257.1256" y="-126.9" font-family="Times,serif" font-size="9.00" fill="#000000">points: Number</text>
<polygon fill="none" stroke="#000000" points="252.1256,-100 252.1256,-120 338.1256,-120 338.1256,-100 252.1256,-100"/>
<text text-anchor="start" x="257.1256" y="-106.9" font-family="Times,serif" font-size="9.00" fill="#000000">upvotedBy: Array</text>
<polygon fill="none" stroke="#000000" points="252.1256,-80 252.1256,-100 338.1256,-100 338.1256,-80 252.1256,-80"/>
<text text-anchor="start" x="257.0102" y="-86.9" font-family="Times,serif" font-size="9.00" fill="#000000">downvotedBy: Array</text>
<polygon fill="none" stroke="#000000" points="252.1256,-60 252.1256,-80 338.1256,-80 338.1256,-60 252.1256,-60"/>
<text text-anchor="start" x="257.1256" y="-66.9" font-family="Times,serif" font-size="9.00" fill="#000000">createdAt: Date</text>
<polygon fill="none" stroke="#000000" points="252.1256,-40 252.1256,-60 338.1256,-60 338.1256,-40 252.1256,-40"/>
<text text-anchor="start" x="257.1256" y="-46.9" font-family="Times,serif" font-size="9.00" fill="#000000">updatedAt: Date</text>
<polygon fill="none" stroke="#000000" points="252.1256,-20 252.1256,-40 338.1256,-40 338.1256,-20 252.1256,-20"/>
<text text-anchor="start" x="257.1256" y="-26.9" font-family="Times,serif" font-size="9.00" fill="#000000">_id: ObjectID</text>
<polygon fill="none" stroke="#000000" points="252.1256,0 252.1256,-20 338.1256,-20 338.1256,0 252.1256,0"/>
<text text-anchor="start" x="257.1256" y="-6.9" font-family="Times,serif" font-size="9.00" fill="#000000">__v: Number</text>
</g>
<!-- questions -->
<g id="node3" class="node">
<title>questions</title>
<polygon fill="#4477c9" stroke="transparent" points="512.9118,-181 512.9118,-519 619.9118,-519 619.9118,-181 512.9118,-181"/>
<polygon fill="#add8e6" stroke="transparent" points="513.4118,-501 513.4118,-519 620.4118,-519 620.4118,-501 513.4118,-501"/>
<polygon fill="none" stroke="#000000" points="513.4118,-501 513.4118,-519 620.4118,-519 620.4118,-501 513.4118,-501"/>
<text text-anchor="start" x="547.6631" y="-507.9" font-family="Times,serif" font-weight="bold" font-style="italic" font-size="9.00" fill="#000000"> questions </text>
<polygon fill="none" stroke="#000000" points="513.4118,-481 513.4118,-501 620.4118,-501 620.4118,-481 513.4118,-481"/>
<text text-anchor="start" x="518.4118" y="-487.9" font-family="Times,serif" font-size="9.00" fill="#000000">author: ObjectID</text>
<polygon fill="none" stroke="#000000" points="513.4118,-461 513.4118,-481 620.4118,-481 620.4118,-461 513.4118,-461"/>
<text text-anchor="start" x="518.4118" y="-467.9" font-family="Times,serif" font-size="9.00" fill="#000000">title: String</text>
<polygon fill="none" stroke="#000000" points="513.4118,-441 513.4118,-461 620.4118,-461 620.4118,-441 513.4118,-441"/>
<text text-anchor="start" x="518.4118" y="-447.9" font-family="Times,serif" font-size="9.00" fill="#000000">body: String</text>
<polygon fill="none" stroke="#000000" points="513.4118,-421 513.4118,-441 620.4118,-441 620.4118,-421 513.4118,-421"/>
<text text-anchor="start" x="518.4118" y="-427.9" font-family="Times,serif" font-size="9.00" fill="#000000">tags: Array</text>
<polygon fill="none" stroke="#000000" points="513.4118,-401 513.4118,-421 620.4118,-421 620.4118,-401 513.4118,-401"/>
<text text-anchor="start" x="518.4118" y="-407.9" font-family="Times,serif" font-size="9.00" fill="#000000">comments: Array</text>
<polygon fill="none" stroke="#000000" points="513.4118,-381 513.4118,-401 620.4118,-401 620.4118,-381 513.4118,-381"/>
<text text-anchor="start" x="518.4118" y="-387.9" font-family="Times,serif" font-size="9.00" fill="#000000">answers: Array</text>
<polygon fill="none" stroke="#000000" points="513.4118,-361 513.4118,-381 620.4118,-381 620.4118,-361 513.4118,-361"/>
<text text-anchor="start" x="518.4118" y="-367.9" font-family="Times,serif" font-size="9.00" fill="#000000">points: Number</text>
<polygon fill="none" stroke="#000000" points="513.4118,-341 513.4118,-361 620.4118,-361 620.4118,-341 513.4118,-341"/>
<text text-anchor="start" x="518.4118" y="-347.9" font-family="Times,serif" font-size="9.00" fill="#000000">upvotedBy: Array</text>
<polygon fill="none" stroke="#000000" points="513.4118,-321 513.4118,-341 620.4118,-341 620.4118,-321 513.4118,-321"/>
<text text-anchor="start" x="518.4118" y="-327.9" font-family="Times,serif" font-size="9.00" fill="#000000">downvotedBy: Array</text>
<polygon fill="none" stroke="#000000" points="513.4118,-301 513.4118,-321 620.4118,-321 620.4118,-301 513.4118,-301"/>
<text text-anchor="start" x="518.4118" y="-307.9" font-family="Times,serif" font-size="9.00" fill="#000000">views: Number</text>
<polygon fill="none" stroke="#000000" points="513.4118,-281 513.4118,-301 620.4118,-301 620.4118,-281 513.4118,-281"/>
<text text-anchor="start" x="518.4118" y="-287.9" font-family="Times,serif" font-size="9.00" fill="#000000">hotAlgo: Number</text>
<polygon fill="none" stroke="#000000" points="513.4118,-261 513.4118,-281 620.4118,-281 620.4118,-261 513.4118,-261"/>
<text text-anchor="start" x="518.0639" y="-267.9" font-family="Times,serif" font-size="9.00" fill="#000000">acceptedAnswer: ObjectID</text>
<polygon fill="none" stroke="#000000" points="513.4118,-241 513.4118,-261 620.4118,-261 620.4118,-241 513.4118,-241"/>
<text text-anchor="start" x="518.4118" y="-247.9" font-family="Times,serif" font-size="9.00" fill="#000000">createdAt: Date</text>
<polygon fill="none" stroke="#000000" points="513.4118,-221 513.4118,-241 620.4118,-241 620.4118,-221 513.4118,-221"/>
<text text-anchor="start" x="518.4118" y="-227.9" font-family="Times,serif" font-size="9.00" fill="#000000">updatedAt: Date</text>
<polygon fill="none" stroke="#000000" points="513.4118,-201 513.4118,-221 620.4118,-221 620.4118,-201 513.4118,-201"/>
<text text-anchor="start" x="518.4118" y="-207.9" font-family="Times,serif" font-size="9.00" fill="#000000">_id: ObjectID</text>
<polygon fill="none" stroke="#000000" points="513.4118,-181 513.4118,-201 620.4118,-201 620.4118,-181 513.4118,-181"/>
<text text-anchor="start" x="518.4118" y="-187.9" font-family="Times,serif" font-size="9.00" fill="#000000">__v: Number</text>
</g>
<!-- answers&#45;&gt;questions -->
<g id="edge4" class="edge">
<title>answers:8&#45;&gt;questions:11</title>
<path fill="none" stroke="#000000" stroke-dasharray="5,2" d="M338.1256,-30C470.5717,-30 380.9657,-271 513.4118,-271"/>
<text text-anchor="middle" x="425.5962" y="-265.2" font-family="Times,serif" font-size="14.00" fill="#000000">answers&#45;questions</text>
<text text-anchor="middle" x="508.3585" y="-258.4" font-family="Times,serif" font-size="14.00" fill="#000000">N</text>
<text text-anchor="middle" x="341.6256" y="-17.4" font-family="Times,serif" font-size="14.00" fill="#000000">1</text>
</g>
<!-- comments -->
<g id="node2" class="node">
<title>comments</title>
<polygon fill="#4477c9" stroke="transparent" points="259.6256,-290 259.6256,-428 330.6256,-428 330.6256,-290 259.6256,-290"/>
<polygon fill="#add8e6" stroke="transparent" points="260.1256,-410 260.1256,-428 331.1256,-428 331.1256,-410 260.1256,-410"/>
<polygon fill="none" stroke="#000000" points="260.1256,-410 260.1256,-428 331.1256,-428 331.1256,-410 260.1256,-410"/>
<text text-anchor="start" x="274.8788" y="-416.9" font-family="Times,serif" font-weight="bold" font-style="italic" font-size="9.00" fill="#000000"> comments </text>
<polygon fill="none" stroke="#000000" points="260.1256,-390 260.1256,-410 331.1256,-410 331.1256,-390 260.1256,-390"/>
<text text-anchor="start" x="265.0126" y="-396.9" font-family="Times,serif" font-size="9.00" fill="#000000">author: ObjectID</text>
<polygon fill="none" stroke="#000000" points="260.1256,-370 260.1256,-390 331.1256,-390 331.1256,-370 260.1256,-370"/>
<text text-anchor="start" x="265.1256" y="-376.9" font-family="Times,serif" font-size="9.00" fill="#000000">body: String</text>
<polygon fill="none" stroke="#000000" points="260.1256,-350 260.1256,-370 331.1256,-370 331.1256,-350 260.1256,-350"/>
<text text-anchor="start" x="265.1256" y="-356.9" font-family="Times,serif" font-size="9.00" fill="#000000">createdAt: Date</text>
<polygon fill="none" stroke="#000000" points="260.1256,-330 260.1256,-350 331.1256,-350 331.1256,-330 260.1256,-330"/>
<text text-anchor="start" x="265.1256" y="-336.9" font-family="Times,serif" font-size="9.00" fill="#000000">updatedAt: Date</text>
<polygon fill="none" stroke="#000000" points="260.1256,-310 260.1256,-330 331.1256,-330 331.1256,-310 260.1256,-310"/>
<text text-anchor="start" x="265.1256" y="-316.9" font-family="Times,serif" font-size="9.00" fill="#000000">_id: ObjectID</text>
<polygon fill="none" stroke="#000000" points="260.1256,-290 260.1256,-310 331.1256,-310 331.1256,-290 260.1256,-290"/>
<text text-anchor="start" x="265.1256" y="-296.9" font-family="Times,serif" font-size="9.00" fill="#000000">__v: Number</text>
</g>
<!-- users -->
<g id="node4" class="node">
<title>users</title>
<polygon fill="#4477c9" stroke="transparent" points="0,-370 0,-588 89,-588 89,-370 0,-370"/>
<polygon fill="#add8e6" stroke="transparent" points=".5,-570 .5,-588 89.5,-588 89.5,-570 .5,-570"/>
<polygon fill="none" stroke="#000000" points=".5,-570 .5,-588 89.5,-588 89.5,-570 .5,-570"/>
<text text-anchor="start" x="33.5043" y="-576.9" font-family="Times,serif" font-weight="bold" font-style="italic" font-size="9.00" fill="#000000"> users </text>
<polygon fill="none" stroke="#000000" points=".5,-550 .5,-570 89.5,-570 89.5,-550 .5,-550"/>
<text text-anchor="start" x="5.5" y="-556.9" font-family="Times,serif" font-size="9.00" fill="#000000">username: String</text>
<polygon fill="none" stroke="#000000" points=".5,-530 .5,-550 89.5,-550 89.5,-530 .5,-530"/>
<text text-anchor="start" x="5.3834" y="-536.9" font-family="Times,serif" font-size="9.00" fill="#000000">passwordHash: String</text>
<polygon fill="none" stroke="#000000" points=".5,-510 .5,-530 89.5,-530 89.5,-510 .5,-510"/>
<text text-anchor="start" x="5.5" y="-516.9" font-family="Times,serif" font-size="9.00" fill="#000000">role: String</text>
<polygon fill="none" stroke="#000000" points=".5,-490 .5,-510 89.5,-510 89.5,-490 .5,-490"/>
<text text-anchor="start" x="5.5" y="-496.9" font-family="Times,serif" font-size="9.00" fill="#000000">questions: Array</text>
<polygon fill="none" stroke="#000000" points=".5,-470 .5,-490 89.5,-490 89.5,-470 .5,-470"/>
<text text-anchor="start" x="5.5" y="-476.9" font-family="Times,serif" font-size="9.00" fill="#000000">answers: Array</text>
<polygon fill="none" stroke="#000000" points=".5,-450 .5,-470 89.5,-470 89.5,-450 .5,-450"/>
<text text-anchor="start" x="5.5" y="-456.9" font-family="Times,serif" font-size="9.00" fill="#000000">badges: Array</text>
<polygon fill="none" stroke="#000000" points=".5,-430 .5,-450 89.5,-450 89.5,-430 .5,-430"/>
<text text-anchor="start" x="5.5" y="-436.9" font-family="Times,serif" font-size="9.00" fill="#000000">views: Number</text>
<polygon fill="none" stroke="#000000" points=".5,-410 .5,-430 89.5,-430 89.5,-410 .5,-410"/>
<text text-anchor="start" x="5.5" y="-416.9" font-family="Times,serif" font-size="9.00" fill="#000000">createdAt: Date</text>
<polygon fill="none" stroke="#000000" points=".5,-390 .5,-410 89.5,-410 89.5,-390 .5,-390"/>
<text text-anchor="start" x="5.5" y="-396.9" font-family="Times,serif" font-size="9.00" fill="#000000">_id: ObjectID</text>
<polygon fill="none" stroke="#000000" points=".5,-370 .5,-390 89.5,-390 89.5,-370 .5,-370"/>
<text text-anchor="start" x="5.5" y="-376.9" font-family="Times,serif" font-size="9.00" fill="#000000">__v: Number</text>
</g>
<!-- users&#45;&gt;answers -->
<g id="edge1" class="edge">
<title>users:8&#45;&gt;answers:0</title>
<path fill="none" stroke="#000000" stroke-dasharray="5,2" d="M89,-400C118.5459,-400 222.5797,-190 252.1256,-190"/>
<text text-anchor="middle" x="170.4853" y="-363.2" font-family="Times,serif" font-size="14.00" fill="#000000">users&#45;answers</text>
<text text-anchor="middle" x="247.0723" y="-177.4" font-family="Times,serif" font-size="14.00" fill="#000000">N</text>
<text text-anchor="middle" x="92.5" y="-387.4" font-family="Times,serif" font-size="14.00" fill="#000000">1</text>
</g>
<!-- users&#45;&gt;comments -->
<g id="edge2" class="edge">
<title>users:8&#45;&gt;comments:0</title>
<path fill="none" stroke="#000000" stroke-dasharray="5,2" d="M89,-400C165.0558,-400 184.0698,-400 260.1256,-400"/>
<text text-anchor="middle" x="170.4853" y="-404.2" font-family="Times,serif" font-size="14.00" fill="#000000">users&#45;comments</text>
<text text-anchor="middle" x="255.0723" y="-404.2" font-family="Times,serif" font-size="14.00" fill="#000000">N</text>
<text text-anchor="middle" x="92.5" y="-404.2" font-family="Times,serif" font-size="14.00" fill="#000000">1</text>
</g>
<!-- users&#45;&gt;questions -->
<g id="edge3" class="edge">
<title>users:8&#45;&gt;questions:0</title>
<path fill="none" stroke="#000000" stroke-dasharray="5,2" d="M89,-400C111.3154,-400 105.3943,-424.342 125,-435 205.7395,-478.8916 511.0519,-491 513.4118,-491"/>
<text text-anchor="middle" x="295.1256" y="-482.2" font-family="Times,serif" font-size="14.00" fill="#000000">users&#45;questions</text>
<text text-anchor="middle" x="508.3585" y="-478.4" font-family="Times,serif" font-size="14.00" fill="#000000">N</text>
<text text-anchor="middle" x="85.5" y="-404.2" font-family="Times,serif" font-size="14.00" fill="#000000">1</text>
</g>
</g>
</svg>
